<mxfile host="app.diagrams.net" type="device">
  <diagram name="SC1" id="sc1-diagram">
    <mxGraphModel dx="1280" dy="720" grid="1" gridSize="10" guides="1" tooltips="1" connect="1" arrows="1" fold="1" page="1" pageScale="1" pageWidth="1240" pageHeight="1754" background="#ffffff">
      <root>
        <mxCell id="0"/>
        <mxCell id="1" parent="0"/>
        <!-- Screen canvas -->
        <mxCell id="c1" value="SC1 メイン" style="rounded=1;whiteSpace=wrap;html=1;fillColor=#FFFFFF;strokeColor=#000000;" vertex="1" parent="1">
          <mxGeometry x="40" y="40" width="600" height="400" as="geometry"/>
        </mxCell>
        <!-- Header -->
        <mxCell id="h1" value="今日の一番" style="text;whiteSpace=wrap;html=1;align=left;verticalAlign=middle;fontSize=20;" vertex="1" parent="c1">
          <mxGeometry x="20" y="16" width="560" height="30" as="geometry"/>
        </mxCell>
        <!-- Input -->
        <mxCell id="inp" value="タスクを入力" style="rounded=1;whiteSpace=wrap;html=1;fillColor=#F8FAFC;strokeColor=#CBD5E1;" vertex="1" parent="c1">
          <mxGeometry x="20" y="60" width="360" height="36" as="geometry"/>
        </mxCell>
        <!-- Add Button -->
        <mxCell id="add" value="追加" style="rounded=1;whiteSpace=wrap;html=1;fillColor=#3B82F6;fontColor=#FFFFFF;strokeColor=#3B82F6;" vertex="1" parent="c1">
          <mxGeometry x="390" y="60" width="90" height="36" as="geometry"/>
        </mxCell>
        <!-- Mode Button -->
        <mxCell id="mode" value="仕事モード" style="rounded=1;whiteSpace=wrap;html=1;fillColor=#E2E8F0;strokeColor=#94A3B8;" vertex="1" parent="c1">
          <mxGeometry x="20" y="110" width="160" height="34" as="geometry"/>
        </mxCell>
        <!-- List -->
        <mxCell id="list" value="リスト" style="shape=swimlane;startSize=24;rounded=1;whiteSpace=wrap;html=1;fillColor=#FFFFFF;strokeColor=#CBD5E1;" vertex="1" parent="c1">
          <mxGeometry x="20" y="156" width="560" height="260" as="geometry"/>
        </mxCell>
      </root>
    </mxGraphModel>
  </diagram>
</mxfile>
